<?xml version="1.0" encoding="UTF-8" standalone="no"?>
<!DOCTYPE svg PUBLIC "-//W3C//DTD SVG 1.1//EN" "http://www.w3.org/Graphics/SVG/1.1/DTD/svg11.dtd">
<svg width="100%" height="100%" viewBox="0 0 512 512" version="1.1" xmlns="http://www.w3.org/2000/svg" xmlns:xlink="http://www.w3.org/1999/xlink" xml:space="preserve" xmlns:serif="http://www.serif.com/" style="fill-rule:evenodd;clip-rule:evenodd;stroke-linecap:round;stroke-linejoin:round;stroke-miterlimit:1.5;">
    <g transform="matrix(1,0,0,1,-2.66487,11.1775)">
        <path d="M35.51,74.522C171.689,13.009 290.781,1.648 373.206,23.508C458.373,46.095 501.757,111.542 490.606,182.373C478.866,256.94 447.345,307.738 393.471,356.152C377.487,370.516 361.037,384.626 317.91,401.283C314.454,402.618 288.972,411.688 264.306,412.572C242.543,413.352 222.636,407.686 214.691,404.942C161.833,386.689 146.594,303.486 186.568,227.48M186.568,227.48C171.453,308.551 215.297,346.956 248.405,343.202C261.48,341.719 275.106,339.307 285.336,333.592C326.626,310.524 339.776,284.677 351.598,265.576C371.25,233.827 394.259,144.691 365.286,107.128C350.704,88.222 337.709,75.761 308.647,64.682C284.936,55.643 243.54,54.095 225.949,52.894C183.739,50.011 119.737,57.706 35.577,74.572" style="fill:none;stroke:rgb(0,153,153);stroke-width:1px;"/>
        <path d="M35.51,74.522C171.689,13.009 290.781,1.648 373.206,23.508C458.373,46.095 501.757,111.542 490.606,182.373C478.866,256.94 447.345,307.738 393.471,356.152C377.487,370.516 361.037,384.626 317.91,401.283C314.454,402.618 288.972,411.688 264.306,412.572C242.543,413.352 222.636,407.686 214.691,404.942C161.833,386.689 146.594,303.486 186.568,227.48M186.568,227.48C171.453,308.551 215.297,346.956 248.405,343.202C261.48,341.719 275.106,339.307 285.336,333.592C326.626,310.524 339.776,284.677 351.598,265.576C371.25,233.827 394.259,144.691 365.286,107.128C350.704,88.222 337.709,75.761 308.647,64.682C284.936,55.643 243.54,54.095 225.949,52.894C183.739,50.011 119.737,57.706 35.577,74.572" style="fill:rgb(0,153,153);"/>
        <g transform="matrix(-1,1.22298e-16,-1.22298e-16,-1,517.33,489.645)">
            <path d="M35.51,74.522C171.689,13.009 290.781,1.648 373.206,23.508C458.373,46.095 501.757,111.542 490.606,182.373C478.866,256.94 447.345,307.738 393.471,356.152C377.487,370.516 361.037,384.626 317.91,401.283C314.454,402.618 288.972,411.688 264.306,412.572C242.543,413.352 222.636,407.686 214.691,404.942C161.833,386.689 146.594,303.486 186.568,227.48M186.568,227.48C171.453,308.551 215.297,346.956 248.405,343.202C261.48,341.719 275.106,339.307 285.336,333.592C326.626,310.524 339.776,284.677 351.598,265.576C371.25,233.827 394.259,144.691 365.286,107.128C350.704,88.222 337.709,75.761 308.647,64.682C284.936,55.643 243.54,54.095 225.949,52.894C183.739,50.011 119.737,57.706 35.577,74.572" style="fill:none;stroke:rgb(0,153,153);stroke-width:1px;"/>
            <path d="M35.51,74.522C171.689,13.009 290.781,1.648 373.206,23.508C458.373,46.095 501.757,111.542 490.606,182.373C478.866,256.94 447.345,307.738 393.471,356.152C377.487,370.516 361.037,384.626 317.91,401.283C314.454,402.618 288.972,411.688 264.306,412.572C242.543,413.352 222.636,407.686 214.691,404.942C161.833,386.689 146.594,303.486 186.568,227.48M186.568,227.48C171.453,308.551 215.297,346.956 248.405,343.202C261.48,341.719 275.106,339.307 285.336,333.592C326.626,310.524 339.776,284.677 351.598,265.576C371.25,233.827 394.259,144.691 365.286,107.128C350.704,88.222 337.709,75.761 308.647,64.682C284.936,55.643 243.54,54.095 225.949,52.894C183.739,50.011 119.737,57.706 35.577,74.572" style="fill:rgb(0,153,153);"/>
        </g>
    </g>
</svg>
